<svg width="240" height="240" viewBox="0 0 44 44" fill="none" xmlns="http://www.w3.org/2000/svg">
<g clip-path="url(#clip0_1_4725)">
<path d="M44 0H0V44H44V0Z" fill="#008AE0"/>
<path d="M4.95788 33.6365V40.6496H3.39111V32.2047H6.05939L8.63947 39.1197L11.2493 32.2047H13.832V40.6496H12.1312V33.6005L9.462 40.6496H7.61356L4.95788 33.6365Z" fill="white"/>
<path d="M21.9205 32.2047V33.6005H16.9638V40.6496H15.2539V32.2047H21.9205Z" fill="white"/>
<path d="M22.814 33.6005V32.2047H31.4307V33.6005H27.9786V40.6496H26.2688V33.6005H22.814Z" fill="white"/>
<path d="M36.4362 32.058C39.1288 32.058 40.6461 32.8679 40.8909 34.9467H39.1657C38.9452 33.7345 38.0516 33.3917 36.4362 33.3917C34.6364 33.3917 33.4746 33.9919 33.4746 35.9871V36.8438C33.4746 38.802 34.613 39.4626 36.4362 39.4626C37.9904 39.4626 38.8966 39.1692 39.1774 38.0065H40.9035C40.5975 40.0007 39.1036 40.7962 36.4362 40.7962C33.4494 40.7962 31.7485 39.6587 31.7485 36.4397C31.7485 33.2207 33.4494 32.058 36.4362 32.058Z" fill="white"/>
</g>
<defs>
<clipPath id="clip0_1_4725">
<rect width="44" height="44" fill="white"/>
</clipPath>
</defs>
</svg>
