<svg width="24" height="24" viewBox="0 0 24 24" fill="none" xmlns="http://www.w3.org/2000/svg">
<path fill-rule="evenodd" clip-rule="evenodd" d="M11.1753 7.46072C11.0797 7.90738 11.0363 8.46374 11.0165 9.1453C10.724 8.9732 10.4101 8.79107 10.0748 8.59658L8.87819 7.9023C6.2722 6.39034 4.96936 5.63444 3.98476 6.17351C3 6.71266 3 8.18252 3 11.1222V12.8778C3 15.8175 3 17.2873 3.98476 17.8265C4.96936 18.3656 6.2722 17.6097 8.8782 16.0977L10.0747 15.4035C10.41 15.209 10.7239 15.0268 11.0165 14.8547C11.0181 14.9111 11.0199 14.9666 11.0219 15.0213C11.048 15.7424 11.105 16.3159 11.2299 16.7621C11.2683 16.8995 11.3132 17.0249 11.3656 17.1387C11.5087 17.4496 11.7078 17.6749 11.9848 17.8265C12.9694 18.3656 14.2722 17.6097 16.8782 16.0977L16.8795 16.0969L18.0225 15.4338L18.0747 15.4035C20.683 13.8902 22 13.1262 22 12C22 10.8738 20.683 10.1098 18.0747 8.5965L18.0225 8.56622L16.8795 7.90306L16.8782 7.9023C16.7153 7.80781 16.5575 7.71626 16.4046 7.6278C14.1106 6.30091 12.9078 5.66813 11.9848 6.17351C11.9751 6.17879 11.9656 6.18416 11.9561 6.18963C11.5431 6.42805 11.3085 6.83768 11.1753 7.46072ZM10.0023 13.1309L11 12.5439V11.4561L10.0023 10.8691C9.71599 10.7006 9.40755 10.5217 9.07103 10.3264L9.01881 10.2961L7.87508 9.63256C6.5222 8.84763 5.69514 8.37363 5.08869 8.12895C5.00523 8.74249 5 9.64628 5 11.1222V12.8778C5 14.3537 5.00523 15.2575 5.08869 15.871C5.69513 15.6264 6.52161 15.1527 7.87446 14.3678L7.87574 14.3671L9.01881 13.7039L9.07102 13.6736C9.40754 13.4783 9.716 13.2994 10.0023 13.1309ZM17.071 10.3264C18.4229 11.1107 19.246 11.5943 19.7595 12C19.6954 12.0507 19.6263 12.1027 19.552 12.1562C19.032 12.5313 18.2539 12.9873 17.071 13.6736L15.8758 14.367L15.8745 14.3678C14.5218 15.1526 13.6952 15.6264 13.0888 15.871C13.0834 15.831 13.0781 15.7879 13.073 15.7415C13.0454 15.4911 13.0269 15.1827 13.0157 14.7967L13.0149 14.7717C13.0014 14.2711 13 13.6535 13 12.8778V11.1222C13 10.3467 13.0014 9.72912 13.0149 9.22862L13.0157 9.20329C13.0269 8.81729 13.0454 8.50889 13.073 8.25854C13.0781 8.21214 13.0834 8.16902 13.0888 8.12898C13.1645 8.15955 13.2438 8.1937 13.327 8.23159C13.9099 8.49688 14.6906 8.94534 15.8743 9.63208L15.8755 9.63283L17.071 10.3264Z" fill="black"/>
</svg>
