<svg width="28" height="28" viewBox="0 0 28 28" fill="none" xmlns="http://www.w3.org/2000/svg">
<g clip-path="url(#clip0_1_10320)">
<path d="M10.7871 6.56618C10.7871 5.39615 12.2009 4.8102 13.0277 5.63754L16.1054 8.71711C18.5943 11.2075 19.8387 12.4527 19.8387 14.0001C19.8387 15.5474 18.5942 16.7926 16.1054 19.283L13.0277 22.3626C12.2009 23.1899 10.7871 22.604 10.7871 21.434C10.7871 21.0856 10.9254 20.7516 11.1715 20.5053L14.2492 17.4258C15.5461 16.128 16.3281 15.3376 16.8184 14.6947C17.0447 14.3979 17.1411 14.2166 17.1826 14.1171C17.2139 14.042 17.2138 14.0155 17.2137 14.0018L17.2137 14.0001L17.2137 13.9983C17.2138 13.9847 17.2139 13.9581 17.1826 13.883C17.1411 13.7835 17.0447 13.6023 16.8184 13.3055C16.3281 12.6625 15.5461 11.8721 14.2492 10.5744L11.1715 7.49483C10.9254 7.24854 10.7871 6.91449 10.7871 6.56618Z" fill="#008AE0"/>
</g>
<defs>
<clipPath id="clip0_1_10320">
<rect width="28" height="28" fill="white" transform="translate(0 0.000244141)"/>
</clipPath>
</defs>
</svg>
