<svg width="16" height="16" viewBox="0 0 16 16" fill="none" xmlns="http://www.w3.org/2000/svg">
<path d="M3.12349 3.1241C3.86268 2.38491 4.5998 2.22432 5.86344 2.11373C6.27608 2.07762 6.63624 2.38981 6.66706 2.80288C6.69789 3.21594 6.38761 3.5738 5.97513 3.61165C4.79088 3.72032 4.53866 3.83025 4.18415 4.18476C3.76495 4.60396 3.68774 4.88014 3.55019 6.72348C3.51865 7.14609 3.5 7.57617 3.5 8.00085C3.5 8.42554 3.51865 8.85562 3.55019 9.27822C3.68774 11.1216 3.76495 11.3977 4.18415 11.8169C4.60335 12.2362 4.87953 12.3134 6.72287 12.4509C7.14548 12.4824 7.57556 12.5011 8.00024 12.5011C8.42493 12.5011 8.85501 12.4824 9.27761 12.4509C11.121 12.3134 11.3971 12.2362 11.8163 11.8169C12.1708 11.4624 12.2808 11.2102 12.3895 10.026C12.4273 9.61349 12.7852 9.30321 13.1982 9.33403C13.6113 9.36486 13.9235 9.72502 13.8874 10.1377C13.7768 11.4013 13.6162 12.1384 12.877 12.8776C12.0029 13.7517 11.1317 13.8167 9.38923 13.9468C8.93583 13.9806 8.46804 14.0011 8.00024 14.0011C7.53245 14.0011 7.06466 13.9806 6.61126 13.9468C4.86882 13.8167 3.9976 13.7517 3.12349 12.8776C2.24937 12.0035 2.18436 11.1323 2.05435 9.38984C2.02051 8.93644 2 8.46865 2 8.00085C2 7.53306 2.02051 7.06527 2.05435 6.61187C2.18436 4.86943 2.24937 3.99822 3.12349 3.1241Z" fill="white"/>
<path d="M14.0003 7.24275C14.0181 7.65725 13.6802 7.99374 13.2649 7.99374C12.8496 7.99374 12.5142 7.65722 12.4948 7.24279C12.4547 6.38229 12.3529 5.54199 12.2419 4.83227L7.92792 9.14379C7.63425 9.43715 7.15811 9.43715 6.86444 9.14379C6.57077 8.85042 6.57077 8.37478 6.86445 8.08142L11.1876 3.7607C10.4726 3.64843 9.62296 3.54509 8.75271 3.50458C8.33785 3.48526 8.00098 3.15017 8.00098 2.73529C8.00098 2.32041 8.33782 1.98287 8.75275 2.00067C9.8732 2.04876 10.9487 2.19377 11.7772 2.33476C12.5101 2.45947 12.8765 2.52183 13.1775 2.82258C13.4786 3.12334 13.541 3.48936 13.6659 4.22141C13.807 5.04907 13.9522 6.12347 14.0003 7.24275Z" fill="white"/>
</svg>
