<svg width="24" height="24" viewBox="0 0 24 24" fill="none" xmlns="http://www.w3.org/2000/svg">
<g clip-path="url(#clip0_1_10369)">
<path d="M15.0001 9C15.0001 9.55228 14.5524 10 14.0001 10H10.0001C9.44784 10 9.00012 9.55228 9.00012 9C9.00012 8.44772 9.44784 8 10.0001 8H14.0001C14.5524 8 15.0001 8.44772 15.0001 9Z" fill="black"/>
<path d="M12 14C12.5523 14 13 13.5523 13 13C13 12.4477 12.5523 12 12 12L10 12C9.44772 12 9 12.4477 9 13C9 13.5523 9.44772 14 10 14L12 14Z" fill="black"/>
<path fill-rule="evenodd" clip-rule="evenodd" d="M20.0001 5C20.5524 5 21.0001 4.55228 21.0001 4C21.0001 3.44772 20.5524 3 20.0001 3H4C3.44772 3 3 3.44772 3 4C3 4.55228 3.44772 5 4 5H4.40155C4.28839 5.5492 4.23415 6.17413 4.16714 6.94624C4.0671 8.09891 3.99951 9.45099 3.99951 11.0003C3.99951 12.8822 4.09923 14.6423 4.23568 16.2111L4.24911 16.3656C4.39562 18.0538 4.50482 19.3207 4.94882 20.3443C5.14802 20.8036 5.59303 20.9992 6.07825 21C6.42187 21.0006 6.78565 20.9035 7.09658 20.7332C7.86637 20.3116 8.70156 19.9779 9.00382 19.9779C9.33693 19.9779 10.1489 20.2876 10.9202 20.7234C11.2474 20.9082 11.6237 21.0001 12.0002 21C12.3786 20.9999 12.7573 20.907 13.0866 20.7223C13.8579 20.2897 14.6755 19.9851 15.0165 19.9851C15.3252 19.9851 16.1464 20.3158 16.9056 20.7325C17.2089 20.8991 17.5626 20.9958 17.8986 21C18.3927 21.0061 18.8487 20.812 19.051 20.3451C19.4943 19.3218 19.6035 18.0529 19.75 16.3659L19.7634 16.2112C19.8999 14.6424 19.9996 12.8822 19.9996 11.0003C19.9996 9.45089 19.932 8.09865 19.8319 6.94594C19.7649 6.17407 19.7107 5.54907 19.5975 5H20.0001ZM17.5296 5H6.46951C6.45822 5.03186 6.44778 5.06367 6.43794 5.09562C6.30818 5.51669 6.2533 6.04011 6.15965 7.11916C6.06456 8.21485 5.99951 9.50924 5.99951 11.0003C5.99951 12.8133 6.09566 14.5145 6.22816 16.0378C6.33868 17.3085 6.41669 18.1394 6.5455 18.7559C6.87099 18.5931 7.19709 18.4476 7.49776 18.3302C7.71084 18.2469 7.93357 18.169 8.14929 18.1088C8.32378 18.0601 8.64684 17.9779 9.00382 17.9779C9.57942 17.9779 10.1755 18.189 10.5191 18.3219C10.9566 18.4911 11.4399 18.7199 11.904 18.982C11.9092 18.985 11.9425 19.0001 12.0002 19C12.058 18.9999 12.0964 18.9846 12.1082 18.978C12.5755 18.7159 13.0625 18.4887 13.5038 18.3214C13.8567 18.1876 14.4476 17.9851 15.0165 17.9851C15.3692 17.9851 15.688 18.0642 15.8668 18.1135C16.0834 18.1732 16.3059 18.2507 16.5181 18.3334C16.8149 18.449 17.1351 18.5918 17.4545 18.7515C17.5828 18.1354 17.6607 17.3054 17.7709 16.0379C17.9034 14.5146 17.9996 12.8133 17.9996 11.0003C17.9996 9.50915 17.9345 8.2147 17.8394 7.11897C17.7458 6.03998 17.6909 5.51661 17.5611 5.09557C17.5513 5.06365 17.5409 5.03185 17.5296 5Z" fill="black"/>
</g>
<defs>
<clipPath id="clip0_1_10369">
<rect width="24" height="24" fill="white"/>
</clipPath>
</defs>
</svg>
