<svg width="24" height="24" viewBox="0 0 24 24" fill="none" xmlns="http://www.w3.org/2000/svg">
<path fill-rule="evenodd" clip-rule="evenodd" d="M16.4336 8.05923C16.0584 7.73177 15.5188 7.73927 15.2092 7.83433C15.4119 7.58653 15.8845 7.38322 16.0235 7.35859C16.1295 7.39813 16.4336 7.70912 16.4336 8.05923ZM17.6316 6.70326C17.3848 5.3893 14.3173 6.26005 12.7724 5.70193C12.7429 6.085 13.2481 6.69873 13.7313 6.92577C12.9054 7.63942 12.1638 9.0772 12.014 10.8337C11.8649 9.0772 11.1233 7.63942 10.2974 6.92585C10.7805 6.69881 11.2862 6.08508 11.2561 5.70209C9.71137 6.26022 6.64376 5.38954 6.39656 6.7035C6.34459 6.9817 6.47899 7.40538 6.62415 7.5273C6.65013 7.43916 6.78577 7.15083 7.21339 7.08624C9.37454 6.76117 11.1789 10.0768 9.55016 11.4174C9.52533 11.438 9.5394 11.4754 9.57291 11.4754H14.4562C14.4893 11.4754 14.5033 11.4379 14.4788 11.4174C12.8497 10.077 14.654 6.76133 16.8153 7.08641C17.2431 7.15099 17.3785 7.43924 17.4045 7.52739C17.5497 7.40546 17.684 6.98145 17.6316 6.70326ZM18.1573 3.68774C18.1184 3.56359 19.3857 3.56046 19.3857 4.35007C19.3857 4.87912 18.6276 5.12972 18.6276 5.67886C18.6276 5.93457 18.904 6.12207 18.9888 6.12207C18.7935 5.2406 19.6008 5.70193 19.8189 5.86669C19.3857 4.68124 20.3608 4.68866 20.2648 4.14511C20.198 3.76534 19.3503 3.88001 19.0436 3.68774C18.4992 3.34669 17.8552 2.0193 17.4308 3.34669C18.222 4.07781 17.7616 5.1541 16.7572 5.1541C16.7572 5.1541 16.7516 5.31186 16.7608 5.32438C17.9588 5.26606 18.3764 4.38953 18.1573 3.68774ZM4.18045 5.86669C4.39844 5.70193 5.20566 5.2406 5.01085 6.12207C5.09526 6.12207 5.37168 5.93457 5.37168 5.67886C5.37168 5.12972 4.61361 4.87912 4.61361 4.35007C4.61361 3.56046 5.88081 3.56359 5.84199 3.68774C5.62318 4.38962 6.04078 5.26614 7.23879 5.32438C7.24765 5.31186 7.2421 5.15402 7.2421 5.15402C6.23808 5.15402 5.77769 4.07781 6.56845 3.3466C6.14406 2.0193 5.50004 3.3466 4.95565 3.68766C4.64886 3.88001 3.80117 3.76526 3.73447 4.14511C3.63888 4.68882 4.61361 4.68124 4.18045 5.86669ZM7.58207 8.05923C7.95763 7.73177 8.49739 7.73927 8.80649 7.83433C8.60456 7.58653 8.13118 7.38322 7.99247 7.35859C7.88654 7.39813 7.58207 7.70912 7.58207 8.05923ZM12.584 0.709291L11.9997 0L11.4153 0.709291L11.9996 1.45565L12.584 0.709291ZM15.92 2.85389L15.5045 2.34989L15.0893 2.85389L15.5045 3.34652L15.92 2.85389ZM19.2908 17.4238L18.7641 16.8689L18.2372 17.4237L18.7641 17.9106L19.2908 17.4238ZM8.91035 2.85389L8.4949 2.34989L8.0797 2.85389L8.49498 3.34652L8.91035 2.85389ZM7.72003 5.32446H9.2701C10.5733 5.32446 11.1596 4.52818 11.3368 3.83767H12.6629C12.8401 4.52818 13.4262 5.32438 14.7298 5.32438H16.2798C16.2798 5.32438 16.5509 4.9582 16.619 4.77688C16.8638 4.12443 16.5509 3.82004 16.0945 3.82004L15.5045 4.35238L14.9146 3.82021C14.4581 3.82021 14.1453 4.12443 14.3901 4.77697C14.4214 4.86033 14.4962 4.98292 14.5671 5.09067C14.017 5.01546 13.3149 4.64063 13.161 3.83767C13.161 3.83767 13.5673 3.19511 13.6695 2.93503C14.0358 1.99977 13.5678 1.61753 12.8834 1.61753L11.9998 2.6514L11.1162 1.61753C10.4318 1.61753 9.96387 1.99977 10.3307 2.93503C10.4322 3.19511 10.839 3.83775 10.839 3.83775C10.6847 4.64063 9.98273 5.01546 9.43272 5.09075C9.50389 4.98283 9.57838 4.86034 9.60949 4.77688C9.85388 4.12443 9.54188 3.82012 9.08514 3.82012L8.49507 4.35246L7.905 3.82029C7.44834 3.82029 7.13634 4.12452 7.38072 4.77705C7.44875 4.95828 7.72003 5.32446 7.72003 5.32446ZM23.7452 10.1071C23.4461 10.2579 21.6908 11.0763 19.4424 10.7736C19.4657 10.6668 19.4855 10.5593 19.5017 10.4513C20.9981 10.2731 22.2145 10.0205 22.9897 9.59125C23.8733 9.10167 24.2597 7.93294 23.8138 7.06359C23.8022 7.04167 23.7701 7.03772 23.7542 7.05617C23.5097 7.33626 21.973 9.00034 19.5517 9.51769C19.5455 9.39281 19.5341 9.26825 19.5173 9.14434C20.6933 8.48052 21.8414 7.71562 22.3882 7.01622C23.2145 5.95879 23.1385 4.6099 22.3522 3.92219C22.3481 3.91873 22.3434 3.91617 22.3383 3.91468C22.3332 3.91319 22.3278 3.9128 22.3225 3.91354C22.3173 3.91429 22.3122 3.91614 22.3077 3.91898C22.3032 3.92182 22.2994 3.92558 22.2965 3.93002C22.0477 4.33862 19.7189 8.08526 17.1621 9.70288C17.1309 9.72273 17.0995 9.74217 17.0678 9.7612C16.9945 9.80552 16.9864 9.90042 17.0487 9.95669C17.3437 10.2226 17.5268 10.5927 17.5268 11.0036C17.5268 11.7181 16.9737 12.3122 16.2424 12.4411C15.8708 12.5128 15.3346 12.4919 14.8192 12.3223C14.7961 12.3149 14.7721 12.3301 14.7721 12.3533V14.6158C14.7721 14.6522 14.8277 14.6612 14.8407 14.6265C15.1541 13.8004 16.0916 13.6249 16.5017 13.6249C16.6493 14.5077 16.9129 15.2389 17.2552 15.6325C17.8128 16.272 18.7234 16.263 19.1181 15.8209C19.1213 15.8173 19.1236 15.813 19.125 15.8083C19.1263 15.8037 19.1265 15.7988 19.1256 15.7941C19.1248 15.7893 19.1229 15.7848 19.12 15.7809C19.1172 15.777 19.1135 15.7738 19.1093 15.7715C18.8773 15.6388 17.5501 14.8277 17.2844 13.4984C17.3887 13.4632 17.4907 13.4215 17.5897 13.3735C18.0181 14.0792 18.6417 14.7078 19.1437 14.9479C19.987 15.3505 20.759 15.1547 21.1013 14.5653C21.1138 14.5445 21.0985 14.5186 21.0734 14.5163C20.5517 14.4749 18.9509 14.0182 18.2693 12.9056C18.3482 12.8343 18.4235 12.7592 18.4949 12.6807C19.2083 13.2212 20.2167 13.699 20.9386 13.7966C21.7834 13.9109 22.7406 13.6425 22.7638 12.6647C22.7642 12.6452 22.7466 12.6291 22.7257 12.6302C22.4253 12.6484 20.437 12.7345 19.0202 11.9249C19.0694 11.8318 19.1153 11.7369 19.1578 11.6405C19.1578 11.6405 21.2986 12.1443 22.313 11.9775C23.321 11.8119 23.9114 11.0639 23.7975 10.1332C23.7941 10.1102 23.7669 10.0962 23.7452 10.1071ZM4.84169 11.6402C4.8843 11.7366 4.93031 11.8315 4.97965 11.9247C3.56324 12.7338 1.57579 12.6484 1.27405 12.63C1.25287 12.6288 1.23516 12.6457 1.23565 12.6648C1.25924 13.6424 2.21609 13.9107 3.06089 13.7963C3.78255 13.6988 4.79138 13.221 5.50451 12.6805C5.57609 12.759 5.65138 12.834 5.7301 12.9054C5.04817 14.0179 3.44762 14.4747 2.92608 14.5162C2.90084 14.5186 2.88611 14.5444 2.89811 14.5652C3.24048 15.1546 4.01245 15.3504 4.85617 14.9478C5.35769 14.7077 5.98128 14.0791 6.40955 13.3734C6.50867 13.4213 6.61065 13.463 6.71493 13.4984C6.44928 14.8276 5.12208 15.6386 4.89011 15.7715C4.88587 15.7738 4.88221 15.777 4.8794 15.7809C4.87658 15.7849 4.87468 15.7894 4.87383 15.7941C4.87298 15.7988 4.87321 15.8037 4.87449 15.8083C4.87578 15.813 4.87808 15.8173 4.88125 15.8209C5.27601 16.263 6.18685 16.2719 6.74448 15.6324C7.08685 15.2388 7.3501 14.5076 7.49758 13.6248C7.90806 13.6248 8.8453 13.8003 9.15854 14.6263C9.17203 14.6612 9.22765 14.6521 9.22765 14.6156V12.3532C9.22765 12.3301 9.20323 12.3148 9.18006 12.3222C8.66489 12.4919 8.12845 12.5125 7.75728 12.4409C7.02569 12.3121 6.47245 11.718 6.47245 11.0036C6.47245 10.5928 6.65617 10.2224 6.95046 9.95652C7.01336 9.90051 7.00483 9.8056 6.93209 9.76128C6.90012 9.74226 6.8684 9.72285 6.83692 9.70304C4.28167 8.08633 1.95416 4.34225 1.70324 3.93101C1.7003 3.92646 1.69641 3.92259 1.69183 3.91967C1.68726 3.91674 1.68211 3.91482 1.67674 3.91404C1.67136 3.91326 1.66587 3.91364 1.66065 3.91514C1.65543 3.91665 1.65059 3.91925 1.64647 3.92277C0.861255 4.61089 0.784952 5.9592 1.6113 7.01638C2.15816 7.71579 3.30619 8.48069 4.48178 9.1445C4.46521 9.26837 4.45389 9.39287 4.44784 9.51769C2.02856 9.00083 0.49298 7.33956 0.246194 7.05749C0.229642 7.03821 0.196952 7.04209 0.18578 7.06408C-0.259461 7.93401 0.127021 9.10175 1.00972 9.59133C1.78501 10.0205 3.00147 10.2732 4.49783 10.4514C4.514 10.5594 4.53373 10.6669 4.557 10.7737C2.31094 11.076 0.556621 10.2594 0.255049 10.1075C0.232704 10.0962 0.205559 10.1102 0.202745 10.1337C0.089118 11.0643 0.679104 11.8116 1.6871 11.9772C2.70114 12.144 4.84169 11.6402 4.84169 11.6402ZM18.7642 18.6252L17.9841 18.0143C17.6727 18.1988 17.444 18.4917 17.3551 18.8352C16.8859 18.9005 15.6068 18.6177 15.7311 18.4301C17.1331 16.4673 16.0608 15.2985 14.772 15.3636V16.6817C14.772 17.1051 14.4008 17.4482 13.9436 17.4482H13.0536C12.4152 17.4482 11.9996 18.087 11.9996 18.087C11.9996 18.087 11.5839 17.4482 10.9455 17.4482H10.0556C9.59799 17.4482 9.22765 17.105 9.22765 16.6817V15.3636C7.93885 15.2985 6.86572 16.4672 8.26806 18.43C8.39137 18.6157 7.0765 18.913 6.45979 18.8378C6.29725 18.6701 6.06288 18.5643 5.80045 18.5643C5.68886 18.5644 5.57817 18.5842 5.47355 18.6228C5.47355 18.6228 3.05005 16.3387 3.00569 16.3163L3.02556 16.2702C3.16376 16.0132 2.95248 15.7331 2.81891 15.7529C2.97408 15.5675 2.98128 14.7565 2.12043 14.5688C2.14567 14.7318 2.1585 15.0642 2.1585 15.0642C2.1585 15.0642 1.49411 14.7067 1.16043 15.0153C0.867296 15.3607 1.27405 15.9874 1.27405 15.9874C1.27405 15.9874 0.934083 15.9956 0.766497 15.9815C1.01287 16.811 1.8393 16.7523 2.01805 16.5886C2.00647 16.7204 2.30523 16.9085 2.55847 16.7577L2.66969 16.7042C2.68931 16.7303 5.04966 18.9502 5.04966 18.9502C4.94125 19.1103 4.88969 19.3069 4.92528 19.5165C4.98131 19.8439 5.25524 20.1154 5.60531 20.1859C5.8525 20.2353 6.08489 20.1875 6.27126 20.079L6.89609 20.6562C6.95154 20.7064 7.02685 20.7378 7.11076 20.7318C7.26362 20.7216 7.37808 20.5984 7.36649 20.4569C7.36152 20.3931 7.32875 20.3383 7.28357 20.2967C7.27363 20.2858 6.64715 19.7069 6.64715 19.7069C7.16398 19.3463 8.12687 19.0921 8.92599 19.0921C9.06635 19.0921 9.13239 18.9738 9.08406 18.8579C8.72199 17.9913 9.50033 17.3634 10.3056 17.8745C10.6568 18.0973 11.0136 18.5363 11.2824 19.2688C9.9613 19.5872 8.30249 20.4644 7.9669 21.422C7.83763 21.7917 8.2645 22.2957 8.7829 22.3971C8.78744 22.3981 8.79213 22.3982 8.7967 22.3974C8.80128 22.3966 8.80564 22.3948 8.80954 22.3923C8.81344 22.3898 8.8168 22.3866 8.81943 22.3827C8.82206 22.3789 8.82391 22.3746 8.82486 22.3701C9.09565 20.9406 10.6401 19.8753 11.4437 19.6944C11.484 19.8021 11.4708 19.7672 11.5112 19.8745C10.6359 20.2866 9.78718 21.1555 9.54486 22.1887C9.43355 22.6618 9.96362 23.0883 10.4012 23.205C10.4232 23.2108 10.4448 23.1956 10.446 23.1746C10.5292 21.868 11.1087 20.7583 11.628 20.2536C11.6422 20.3523 11.6529 20.4515 11.66 20.551C11.66 20.551 11.1284 22.0254 11.1284 23.1012C11.1284 23.6018 11.8757 23.9511 11.986 24C12.1239 23.9511 12.8707 23.6018 12.8707 23.1012C12.8707 22.0254 12.3392 20.5509 12.3392 20.5509C12.3465 20.4514 12.3573 20.3522 12.3716 20.2535C12.8905 20.7585 13.4704 21.8676 13.5533 23.1741C13.5538 23.1793 13.5554 23.1842 13.558 23.1887C13.5606 23.1932 13.5641 23.197 13.5684 23.1999C13.5727 23.2029 13.5775 23.2048 13.5826 23.2057C13.5877 23.2066 13.593 23.2064 13.598 23.205C14.0361 23.0883 14.5657 22.6618 14.4548 22.1887C14.212 21.1557 13.3637 20.2866 12.4885 19.8745C12.5285 19.7672 12.5152 19.802 12.5557 19.6943C13.3597 19.8752 14.9036 20.9405 15.1744 22.37C15.1764 22.3791 15.1819 22.3871 15.1898 22.3921C15.1977 22.3972 15.2072 22.3989 15.2164 22.397C15.7345 22.2956 16.162 21.7915 16.032 21.4218C15.6972 20.4643 14.038 19.587 12.7167 19.2686C12.986 18.5362 13.3428 18.0971 13.694 17.8743C14.4988 17.3632 15.2772 17.991 14.9151 18.8578C14.8668 18.9737 14.9324 19.092 15.0732 19.092C15.9772 19.092 17.0909 19.417 17.5316 19.8529C17.8132 20.2735 18.3335 20.5426 18.9207 20.485C19.5879 20.4199 20.132 19.921 20.2071 19.3042C20.2728 18.7638 19.992 18.2785 19.5444 18.0141L18.7642 18.6252ZM13.0149 14.6881C13.2928 14.5855 13.7285 14.6685 13.7137 15.0679C13.7101 15.1585 13.8376 15.1585 13.8469 15.066C13.9301 14.4679 13.5241 14.2957 13.0993 14.3657C13.0465 14.1601 13.0033 13.9804 12.9541 13.8023C12.9149 13.6581 12.9005 13.3874 13.0681 13.3874C13.1584 13.3874 13.1221 13.6392 13.1136 13.7477C13.1061 13.8428 13.1405 13.9004 13.2181 13.9031C13.2664 13.9051 13.3268 13.8436 13.3629 13.8028C13.6061 13.5291 13.6625 13.1053 13.3777 12.9009C13.1393 12.7294 12.5425 12.857 12.3784 13.1015C12.3536 13.0094 12.2353 12.8574 12.1785 12.7912C12.1233 12.7265 12.109 12.6823 12.1853 12.6256C12.2213 12.5981 12.3301 12.4904 12.3301 12.3792C12.3301 12.3134 12.2788 12.192 12.1161 12.192C11.9876 12.192 11.8449 12.2805 11.8449 12.4778C11.8449 12.5218 11.8556 12.5687 11.884 12.6193C11.8029 12.6059 11.5825 12.6114 11.4692 12.6392L13.0345 16.9147C13.4825 16.6946 13.811 16.3461 13.811 15.972C13.811 15.6532 13.3393 15.759 13.1102 16.0077C13.0365 15.6034 12.971 15.2302 12.8993 14.8581C12.8798 14.7555 12.9322 14.719 13.0149 14.6881ZM10.8016 11.7836L11.1305 12.6931C10.849 12.7598 10.3961 12.9641 10.3961 13.2348C10.3961 13.5951 11.0367 13.8297 11.4069 13.8015C11.3886 13.8837 11.4097 13.957 11.4673 14.024C11.3329 14.024 11.0794 14.0862 10.9961 14.1755C10.7997 13.9935 10.4925 13.9272 10.3465 14.038C10.1997 14.1497 10.1953 14.3388 10.3485 14.5527C10.4553 14.7007 10.4953 14.8468 10.3753 15.0183C10.8217 15.0183 10.6573 14.4406 10.8322 14.4406C10.8092 14.5527 10.8232 14.6823 10.874 14.826C10.9076 14.9216 10.9076 14.9894 10.85 15.0814C10.706 15.3106 10.4821 15.8368 10.5124 16.3128C10.3661 16.312 10.2917 16.2764 10.3432 16.0774C10.3624 16.0034 10.3165 15.9505 10.2557 16.0418C10.1885 16.1424 10.156 16.3144 10.156 16.3879C10.156 16.8117 10.6633 16.897 10.8568 16.8074C11.4169 17.347 12.517 17.203 12.8852 17.022L10.9484 11.7321C10.9089 11.6322 10.7669 11.6798 10.8016 11.7836ZM10.7346 16.1411C10.6945 15.9234 10.9989 15.5341 11.3862 15.1585C11.3037 15.4033 11.355 15.8251 11.5166 15.9704C11.2357 15.9704 10.9022 16.0229 10.7346 16.1411Z" fill="black"/>
</svg>
