<svg width="16" height="16" viewBox="0 0 16 16" fill="none" xmlns="http://www.w3.org/2000/svg">
<path fill-rule="evenodd" clip-rule="evenodd" d="M3.12398 3.12398C2.24873 3.99923 2.18383 4.87122 2.05404 6.61522C2.02039 7.0673 2 7.53365 2 8C2 8.46635 2.02039 8.9327 2.05404 9.38478C2.18383 11.1288 2.24873 12.0008 3.12398 12.876C3.99923 13.7513 4.87122 13.8162 6.61522 13.946C7.0673 13.9796 7.53365 14 8 14C8.46635 14 8.9327 13.9796 9.38478 13.946C11.1288 13.8162 12.0008 13.7513 12.876 12.876C13.7513 12.0008 13.8162 11.1288 13.946 9.38479C13.9796 8.9327 14 8.46635 14 8C14 7.53365 13.9796 7.0673 13.946 6.61522C13.8162 4.87122 13.7513 3.99923 12.876 3.12398C12.0008 2.24873 11.1288 2.18383 9.38479 2.05404C8.9327 2.02039 8.46635 2 8 2C7.53365 2 7.0673 2.02039 6.61522 2.05404C4.87122 2.18383 3.99923 2.24873 3.12398 3.12398ZM6.26315 4.68187C6.69845 4.63653 7.34532 4.5835 7.99998 4.5835C8.54845 4.5835 9.09513 4.62146 9.64096 4.67178C9.91709 4.69669 10.317 4.73276 10.6688 5.04774C10.9538 5.30283 11.0728 5.62928 11.1482 5.9927C11.1895 6.19018 11.2206 6.41972 11.2206 6.66683C11.2206 6.89422 11.1943 7.11005 11.1588 7.29939C11.0859 7.69601 10.9714 8.06207 10.6568 8.33809C10.2818 8.66719 9.83768 8.68837 9.53226 8.70293C9.47966 8.70543 9.42707 8.70826 9.37449 8.71108L9.30702 8.71468H8.6623C8.64286 8.86745 8.53788 9.3335 7.98047 9.3335C7.51161 9.3335 7.22364 8.94777 7.27887 8.51362C7.31139 8.25798 7.39173 7.9501 7.6391 7.68946C7.89004 7.42505 8.20069 7.33063 8.45437 7.28576C8.68466 7.24504 8.96661 7.23035 9.25606 7.21527L9.34154 7.21108C9.44512 7.20615 9.54883 7.20122 9.65183 7.19004C9.68934 7.01833 9.72057 6.84303 9.72057 6.66683C9.72057 6.50299 9.69131 6.34188 9.65477 6.18275C9.58822 6.17385 9.52138 6.16743 9.45456 6.16101L9.43742 6.15936C9.03895 6.12097 8.51605 6.0835 7.99998 6.0835C7.41778 6.0835 6.82778 6.13117 6.41856 6.1738C6.4112 6.17456 6.39714 6.17804 6.38295 6.18155C6.36456 6.1861 6.34595 6.1907 6.34145 6.18952C6.27292 6.53309 5.96967 6.79199 5.60596 6.79199C5.19174 6.79199 4.85596 6.45621 4.85596 6.04199C4.85596 5.95053 4.87233 5.86289 4.9023 5.78185C4.93519 5.65691 4.97993 5.49962 5.11193 5.30605C5.19055 5.19076 5.29032 5.09509 5.36329 5.03251C5.43625 4.96994 5.54601 4.88592 5.67194 4.82579C5.85956 4.7362 6.05843 4.70281 6.26315 4.68187ZM8.9 10.9325C8.9 10.4355 8.49705 10.0325 8 10.0325C7.50294 10.0325 7.1 10.4355 7.1 10.9325C7.1 11.4296 7.50294 11.8325 8 11.8325C8.49705 11.8325 8.9 11.4296 8.9 10.9325Z" fill="#969FA8"/>
</svg>
