<svg width="16" height="16" viewBox="0 0 16 16" fill="none" xmlns="http://www.w3.org/2000/svg">
<path fill-rule="evenodd" clip-rule="evenodd" d="M3.13271 4.20283C2.76867 4.87612 2.74293 5.29728 2.69144 6.1396C2.67412 6.4229 2.66406 6.71181 2.66406 7.00072C2.66406 7.28963 2.67412 7.57854 2.69144 7.86185C2.74293 8.70416 2.76867 9.12532 3.13271 9.79862C3.37125 10.2398 4.09221 10.9608 4.53339 11.1993C5.20669 11.5633 5.62785 11.5891 6.47016 11.6406C6.75347 11.6579 7.04238 11.6679 7.33129 11.6679C7.6202 11.6679 7.90911 11.6579 8.19241 11.6406C9.03473 11.5891 9.45589 11.5633 10.1292 11.1993C10.2129 11.154 10.3067 11.0914 10.4053 11.0167L12.8603 13.4717C13.1207 13.732 13.5428 13.732 13.8031 13.4717C14.0635 13.2113 14.0635 12.7892 13.8031 12.5289L11.348 10.0737C11.4224 9.97545 11.4848 9.88204 11.5299 9.79862C11.8939 9.12532 11.9197 8.70416 11.9711 7.86185C11.9885 7.57854 11.9985 7.28963 11.9985 7.00072C11.9985 6.71181 11.9885 6.4229 11.9711 6.1396C11.9197 5.29728 11.8939 4.87612 11.5299 4.20283C11.2913 3.76164 10.5704 3.04068 10.1292 2.80214C9.45589 2.4381 9.03473 2.41236 8.19241 2.36087C7.90911 2.34356 7.6202 2.3335 7.33129 2.3335C7.04238 2.3335 6.75347 2.34356 6.47016 2.36087C5.62785 2.41236 5.20669 2.4381 4.53339 2.80214C4.09221 3.04068 3.37125 3.76164 3.13271 4.20283ZM6.55151 3.69172C6.81143 3.67583 7.07298 3.66683 7.33129 3.66683C7.58959 3.66683 7.85115 3.67583 8.11106 3.69172C8.93835 3.74229 9.09994 3.7614 9.49501 3.975C9.49501 3.975 9.49932 3.97737 9.50811 3.98286C9.51718 3.98853 9.52944 3.99655 9.5449 4.00731C9.57628 4.02913 9.61545 4.05846 9.66136 4.09565C9.75397 4.17067 9.85847 4.26506 9.96271 4.3693C10.0669 4.47354 10.1613 4.57804 10.2364 4.67065C10.2736 4.71657 10.3029 4.75573 10.3247 4.78711C10.3355 4.80257 10.3435 4.81483 10.3491 4.8239C10.3549 4.83309 10.357 4.83698 10.357 4.83698C10.5706 5.23206 10.5897 5.39364 10.6403 6.22095C10.6562 6.48087 10.6652 6.74242 10.6652 7.00072C10.6652 7.25903 10.6562 7.52058 10.6403 7.7805C10.5897 8.6078 10.5706 8.76939 10.357 9.16447C10.357 9.16447 10.3549 9.16835 10.3491 9.17755C10.3435 9.18661 10.3355 9.19888 10.3247 9.21434C10.3029 9.24572 10.2736 9.28488 10.2364 9.33079C10.1613 9.4234 10.0669 9.5279 9.96271 9.63214C9.85847 9.73638 9.75397 9.83078 9.66136 9.9058C9.61545 9.94299 9.57628 9.97231 9.5449 9.99414C9.52944 10.0049 9.51718 10.0129 9.50811 10.0186C9.49892 10.0243 9.49503 10.0264 9.49503 10.0264C9.09995 10.24 8.93837 10.2592 8.11106 10.3097C7.85115 10.3256 7.58959 10.3346 7.33129 10.3346C7.07298 10.3346 6.81143 10.3256 6.55151 10.3097C5.72421 10.2592 5.56262 10.24 5.16754 10.0264C5.16754 10.0264 5.16366 10.0243 5.15446 10.0186C5.1454 10.0129 5.13313 10.0049 5.11767 9.99414C5.08629 9.97231 5.04713 9.94299 5.00122 9.9058C4.90861 9.83078 4.80411 9.73638 4.69987 9.63214C4.59563 9.5279 4.50123 9.4234 4.42621 9.33079C4.38902 9.28488 4.3597 9.24572 4.33787 9.21434C4.32712 9.19888 4.31909 9.18661 4.31343 9.17755C4.30793 9.16876 4.30557 9.16444 4.30557 9.16444C4.09197 8.76938 4.07286 8.60779 4.02229 7.7805C4.0064 7.52058 3.9974 7.25903 3.9974 7.00072C3.9974 6.74242 4.0064 6.48087 4.02229 6.22095C4.07286 5.39364 4.09195 5.23209 4.30557 4.837C4.30557 4.837 4.30793 4.83269 4.31343 4.8239C4.31909 4.81483 4.32712 4.80257 4.33787 4.78711C4.3597 4.75573 4.38902 4.71657 4.42621 4.67065C4.50123 4.57804 4.59563 4.47354 4.69987 4.3693C4.80411 4.26506 4.90861 4.17067 5.00122 4.09565C5.04713 4.05846 5.08629 4.02913 5.11767 4.00731C5.13313 3.99655 5.1454 3.98853 5.15446 3.98286C5.16366 3.97711 5.16754 3.97502 5.16754 3.97502C5.56262 3.7614 5.72421 3.74229 6.55151 3.69172Z" fill="#969FA8"/>
</svg>
