<svg width="16" height="16" viewBox="0 0 16 16" fill="none" xmlns="http://www.w3.org/2000/svg">
<path d="M13.5493 2.45075C13.4664 2.36703 13.3277 2.24729 13.1195 2.15394C12.9463 2.07628 12.7814 2.0424 12.6579 2.02461C12.2921 1.97193 11.8531 2.0052 11.3243 2.11122C10.264 2.32379 8.85424 2.82625 6.96991 3.49796L6.14571 3.79177C4.77167 4.28158 3.74395 4.64802 3.0295 5.02886L2.91928 5.0807C1.75043 5.63046 1.68084 7.26458 2.79875 7.9117C3.2464 8.17082 3.69473 8.42868 4.14165 8.6891C4.67847 9.0019 4.94688 9.15829 5.23906 9.14619C5.53123 9.13409 5.78579 8.95604 6.29491 8.59992L7.24155 7.93776C8.30993 7.19045 8.84412 6.8168 9.02203 6.99498C9.19994 7.17316 8.8255 7.70679 8.07661 8.77405L7.41404 9.7183C7.05711 10.227 6.87865 10.4813 6.86613 10.7735C6.85362 11.0657 7.00968 11.3343 7.32181 11.8717C7.59796 12.3471 7.82123 12.7398 8.08835 13.2012C8.73545 14.3191 10.3695 14.2496 10.9193 13.0807L10.9711 12.9706C11.352 12.2561 11.7184 11.2284 12.2082 9.85433L12.502 9.03013C13.1738 7.14579 13.6762 5.73598 13.8888 4.67573C13.9948 4.14693 14.0281 3.70787 13.9754 3.34212C13.9576 3.21859 13.9237 3.05374 13.8461 2.88052C13.7527 2.67241 13.6331 2.53368 13.5493 2.45075Z" fill="#969FA8"/>
</svg>
