<svg width="24" height="24" viewBox="0 0 24 24" fill="none" xmlns="http://www.w3.org/2000/svg">
<g clip-path="url(#clip0_1_10345)">
<path d="M13.25 15C13.25 14.3096 12.6904 13.75 12 13.75C11.3096 13.75 10.75 14.3096 10.75 15C10.75 15.6904 11.3096 16.25 12 16.25C12.6904 16.25 13.25 15.6904 13.25 15Z" fill="black"/>
<path fill-rule="evenodd" clip-rule="evenodd" d="M13.1898 8.02709C14.3121 8.07655 15.1966 8.11553 15.9485 8.2518C15.8369 6.17049 15.7571 5.76976 15.1861 5.08281L15.1849 5.0815C15.1797 5.07567 15.1575 5.05083 15.1134 5.00551C15.0634 4.95421 15.0021 4.89368 14.9363 4.83129C14.8705 4.76889 14.8069 4.71077 14.753 4.66361C14.7055 4.622 14.6795 4.60113 14.6734 4.59619L14.6726 4.59548C14.193 4.23767 13.9111 4.13444 13.658 4.08116C13.3137 4.0087 12.9059 4 12 4C11.0941 4 10.6863 4.0087 10.342 4.08116C10.0889 4.13444 9.76363 4.23766 9.28404 4.59546L9.28322 4.59618C9.2771 4.60109 9.25111 4.62197 9.20356 4.66361C9.14971 4.71077 9.08604 4.76889 9.02028 4.83129C8.95452 4.89368 8.89314 4.95421 8.84322 5.00551C8.79911 5.05083 8.77692 5.07567 8.7717 5.0815L8.77094 5.08229C8.70965 5.15602 8.65402 5.22645 8.6034 5.29602C8.32809 5.67438 7.9331 6 7.46518 6C6.93409 6 6.49696 5.60211 6.5 5.13672C6.50072 5.02706 6.52587 4.91366 6.57999 4.80083C6.73991 4.46742 6.95091 4.14307 7.23291 3.80382C7.40941 3.5915 7.86679 3.15754 8.08808 2.99244C9.41832 2 10.3078 2 12 2C13.6922 2 14.5383 2 15.8685 2.99244C16.0898 3.15754 16.5472 3.5915 16.7237 3.80382C17.7846 5.08011 17.8406 6.14542 17.9526 8.27603C17.9652 8.51504 17.9756 8.75681 17.9834 9.00017C17.9847 9.03818 17.9837 9.07569 17.9806 9.1126C18.1698 9.25852 18.3566 9.42599 18.5445 9.61857C19.9264 11.035 19.9498 12.2476 19.9968 14.6728C19.9989 14.7818 20 14.8909 20 15C20 15.1091 19.9989 15.2182 19.9968 15.3272C19.9498 17.7524 19.9264 18.965 18.5445 20.3814C17.1626 21.7978 15.8384 21.8562 13.1898 21.9729C12.7965 21.9902 12.3983 22 12 22C11.6017 22 11.2035 21.9902 10.8102 21.9729C8.16164 21.8562 6.83736 21.7978 5.4555 20.3814C4.07364 18.965 4.05016 17.7524 4.0032 15.3272C4.00109 15.2182 4 15.1091 4 15C4 14.8909 4.00109 14.7818 4.0032 14.6728C4.05016 12.2476 4.07364 11.035 5.4555 9.61857C6.83736 8.20217 8.16164 8.14381 10.8102 8.02709C11.2035 8.00976 11.6017 8 12 8C12.3983 8 12.7965 8.00976 13.1898 8.02709ZM12 10C11.6342 10 11.2654 10.009 10.8982 10.0252C9.50399 10.0866 8.7368 10.129 8.13746 10.2771C7.66705 10.3933 7.31952 10.572 6.88706 11.0152C6.42997 11.4837 6.27037 11.823 6.17551 12.2258C6.05035 12.7573 6.0277 13.4272 6.00283 14.7115C6.00096 14.808 6 14.9042 6 15C6 15.0958 6.00096 15.192 6.00283 15.2885C6.0277 16.5728 6.05035 17.2427 6.17551 17.7742C6.27037 18.177 6.42997 18.5163 6.88706 18.9848C7.31952 19.428 7.66705 19.6067 8.13746 19.7229C8.7368 19.871 9.50399 19.9134 10.8982 19.9748C11.2654 19.991 11.6342 20 12 20C12.3658 20 12.7346 19.991 13.1018 19.9748C14.496 19.9134 15.2632 19.871 15.8625 19.7229C16.333 19.6067 16.6805 19.428 17.1129 18.9848C17.57 18.5163 17.7296 18.177 17.8245 17.7742C17.9497 17.2427 17.9723 16.5728 17.9972 15.2885C17.999 15.192 18 15.0958 18 15C18 14.9042 17.999 14.808 17.9972 14.7115C17.9723 13.4272 17.9497 12.7573 17.8245 12.2258C17.7296 11.823 17.57 11.4837 17.1129 11.0152C16.6805 10.572 16.333 10.3933 15.8625 10.2771C15.2632 10.129 14.496 10.0866 13.1018 10.0252C12.7346 10.009 12.3658 10 12 10Z" fill="black"/>
</g>
<defs>
<clipPath id="clip0_1_10345">
<rect width="24" height="24" fill="white"/>
</clipPath>
</defs>
</svg>
